<svg width="47" height="37" viewBox="0 0 47 37" fill="none" xmlns="http://www.w3.org/2000/svg">
<path d="M37.5374 36.5526C35.6853 33.818 34.419 33.0816 31.3765 32.3103L27.1771 31.3676C24.469 30.9301 23.5177 30.5394 22.8344 28.5062C22.7469 28.2457 22.7044 27.9711 22.6925 27.6965C22.5716 24.8923 22.5441 23.279 22.7107 20.8688C23.6928 14.4835 25.9006 11.9506 32.4809 9.08456C40.6618 5.26907 43.7583 3.3461 46.4078 0.342773C46.6447 10.9778 44.4036 14.9833 36.209 18.7262C32.0954 20.4081 29.8181 21.5523 25.8817 24.3827C31.0485 25.5334 33.7462 26.6539 35.175 27.8622C35.4861 28.1253 35.7369 28.4501 35.9539 28.795C37.6063 31.4211 37.7238 33.2334 37.5374 36.5526Z" fill="url(#paint0_linear_2771_16425)"/>
<path d="M19.8414 16.8433C20.2479 19.2802 20.3988 21.0911 20.5705 24.0399C18.6104 22.0349 17.3059 21.0226 14.3999 19.5405L8.87198 16.8408C6.46404 15.6252 5.18005 14.8217 3.04412 13.0698C1.54019 11.2003 0.825574 10.0273 0.258742 7.37053C-0.117231 4.49945 -0.0538101 2.77585 0.258742 0C1.29531 2.59728 2.76098 3.7168 6.01066 5.57075C7.92892 6.6379 9.43214 7.3541 12.2043 8.52413C12.9571 8.84186 13.6824 9.22504 14.3799 9.6507C16.3409 10.8475 17.7709 11.6566 19.1668 14.6038C19.5018 15.3111 19.7126 16.0714 19.8414 16.8433Z" fill="url(#paint1_linear_2771_16425)"/>
<defs>
<linearGradient id="paint0_linear_2771_16425" x1="46.4244" y1="0.354695" x2="34.2226" y2="40.1099" gradientUnits="userSpaceOnUse">
<stop stop-color="#3E42FE"/>
<stop offset="0.345" stop-color="#A84BDC"/>
<stop offset="0.565" stop-color="#EF349D"/>
<stop offset="0.76" stop-color="#FF425B"/>
<stop offset="0.825" stop-color="#FF5D36"/>
</linearGradient>
<linearGradient id="paint1_linear_2771_16425" x1="20.5705" y1="0.00791441" x2="14.0976" y2="27.3559" gradientUnits="userSpaceOnUse">
<stop stop-color="#3E42FE"/>
<stop offset="0.345" stop-color="#A84BDC"/>
<stop offset="0.565" stop-color="#EF349D"/>
<stop offset="0.76" stop-color="#FF425B"/>
<stop offset="0.825" stop-color="#FF5D36"/>
</linearGradient>
</defs>
</svg>
