<svg width="46" height="46" viewBox="0 0 46 46" fill="none" xmlns="http://www.w3.org/2000/svg">
<g filter="url(#filter0_iiii_2707_15969)">
<circle cx="22.75" cy="23" r="21" fill="#F5F5FA"/>
</g>
<g filter="url(#filter1_dddd_2707_15969)">
<circle cx="22.75" cy="23" r="15.75" fill="url(#paint0_radial_2707_15969)"/>
</g>
<path d="M15.45 26.6C14.99 26.6 14.5733 26.5467 14.2 26.44C13.8333 26.3267 13.5067 26.1667 13.22 25.96C12.9333 25.7467 12.6767 25.4967 12.45 25.21L13.48 24.04C13.8133 24.4867 14.1467 24.7867 14.48 24.94C14.82 25.0933 15.17 25.17 15.53 25.17C15.71 25.17 15.8733 25.1467 16.02 25.1C16.1667 25.0533 16.28 24.9867 16.36 24.9C16.44 24.8067 16.48 24.6933 16.48 24.56C16.48 24.46 16.4533 24.37 16.4 24.29C16.3533 24.21 16.2867 24.14 16.2 24.08C16.1133 24.02 16.01 23.9667 15.89 23.92C15.77 23.8667 15.6433 23.8233 15.51 23.79C15.3767 23.75 15.24 23.7167 15.1 23.69C14.7133 23.6033 14.3767 23.4967 14.09 23.37C13.8033 23.2433 13.5633 23.09 13.37 22.91C13.1833 22.7233 13.0433 22.5133 12.95 22.28C12.8567 22.04 12.81 21.7733 12.81 21.48C12.81 21.1667 12.88 20.88 13.02 20.62C13.1667 20.3533 13.36 20.1267 13.6 19.94C13.8467 19.7467 14.13 19.6 14.45 19.5C14.77 19.3933 15.1033 19.34 15.45 19.34C15.91 19.34 16.3033 19.39 16.63 19.49C16.9633 19.5833 17.2467 19.72 17.48 19.9C17.72 20.08 17.9233 20.2967 18.09 20.55L17.04 21.56C16.9 21.3867 16.7467 21.2433 16.58 21.13C16.42 21.0167 16.2467 20.93 16.06 20.87C15.88 20.81 15.6933 20.78 15.5 20.78C15.3 20.78 15.1267 20.8067 14.98 20.86C14.84 20.9067 14.73 20.9767 14.65 21.07C14.57 21.1567 14.53 21.2633 14.53 21.39C14.53 21.5033 14.5633 21.6 14.63 21.68C14.6967 21.76 14.7867 21.8333 14.9 21.9C15.0133 21.96 15.1433 22.0133 15.29 22.06C15.4367 22.1 15.59 22.1333 15.75 22.16C16.1167 22.2333 16.4467 22.33 16.74 22.45C17.04 22.57 17.2967 22.7167 17.51 22.89C17.73 23.0633 17.8967 23.27 18.01 23.51C18.13 23.7433 18.19 24.0167 18.19 24.33C18.19 24.8167 18.07 25.23 17.83 25.57C17.5967 25.9033 17.2733 26.16 16.86 26.34C16.4533 26.5133 15.9833 26.6 15.45 26.6ZM22.6579 26.6C22.1246 26.6 21.6379 26.51 21.1979 26.33C20.7579 26.15 20.3746 25.8967 20.0479 25.57C19.7212 25.2433 19.4679 24.86 19.2879 24.42C19.1079 23.98 19.0179 23.4967 19.0179 22.97C19.0179 22.4433 19.1079 21.96 19.2879 21.52C19.4679 21.08 19.7212 20.6967 20.0479 20.37C20.3746 20.0433 20.7579 19.79 21.1979 19.61C21.6379 19.43 22.1212 19.34 22.6479 19.34C23.1746 19.34 23.6579 19.43 24.0979 19.61C24.5379 19.79 24.9212 20.0433 25.2479 20.37C25.5746 20.6967 25.8246 21.08 25.9979 21.52C26.1779 21.96 26.2679 22.4433 26.2679 22.97C26.2679 23.49 26.1779 23.9733 25.9979 24.42C25.8246 24.86 25.5746 25.2433 25.2479 25.57C24.9212 25.8967 24.5379 26.15 24.0979 26.33C23.6579 26.51 23.1779 26.6 22.6579 26.6ZM22.6479 25C22.9212 25 23.1712 24.95 23.3979 24.85C23.6312 24.75 23.8312 24.61 23.9979 24.43C24.1712 24.2433 24.3046 24.0267 24.3979 23.78C24.4912 23.5333 24.5379 23.2633 24.5379 22.97C24.5379 22.6767 24.4912 22.4067 24.3979 22.16C24.3046 21.9133 24.1712 21.7 23.9979 21.52C23.8312 21.3333 23.6312 21.19 23.3979 21.09C23.1712 20.99 22.9212 20.94 22.6479 20.94C22.3746 20.94 22.1212 20.99 21.8879 21.09C21.6612 21.19 21.4612 21.3333 21.2879 21.52C21.1146 21.7 20.9812 21.9133 20.8879 22.16C20.8012 22.4067 20.7579 22.6767 20.7579 22.97C20.7579 23.2633 20.8012 23.5367 20.8879 23.79C20.9812 24.0367 21.1146 24.25 21.2879 24.43C21.4612 24.61 21.6612 24.75 21.8879 24.85C22.1212 24.95 22.3746 25 22.6479 25ZM29.9031 26.6C29.4431 26.6 29.0265 26.5467 28.6531 26.44C28.2865 26.3267 27.9598 26.1667 27.6731 25.96C27.3865 25.7467 27.1298 25.4967 26.9031 25.21L27.9331 24.04C28.2665 24.4867 28.5998 24.7867 28.9331 24.94C29.2731 25.0933 29.6231 25.17 29.9831 25.17C30.1631 25.17 30.3265 25.1467 30.4731 25.1C30.6198 25.0533 30.7331 24.9867 30.8131 24.9C30.8931 24.8067 30.9331 24.6933 30.9331 24.56C30.9331 24.46 30.9065 24.37 30.8531 24.29C30.8065 24.21 30.7398 24.14 30.6531 24.08C30.5665 24.02 30.4631 23.9667 30.3431 23.92C30.2231 23.8667 30.0965 23.8233 29.9631 23.79C29.8298 23.75 29.6931 23.7167 29.5531 23.69C29.1665 23.6033 28.8298 23.4967 28.5431 23.37C28.2565 23.2433 28.0165 23.09 27.8231 22.91C27.6365 22.7233 27.4965 22.5133 27.4031 22.28C27.3098 22.04 27.2631 21.7733 27.2631 21.48C27.2631 21.1667 27.3331 20.88 27.4731 20.62C27.6198 20.3533 27.8131 20.1267 28.0531 19.94C28.2998 19.7467 28.5831 19.6 28.9031 19.5C29.2231 19.3933 29.5565 19.34 29.9031 19.34C30.3631 19.34 30.7565 19.39 31.0831 19.49C31.4165 19.5833 31.6998 19.72 31.9331 19.9C32.1731 20.08 32.3765 20.2967 32.5431 20.55L31.4931 21.56C31.3531 21.3867 31.1998 21.2433 31.0331 21.13C30.8731 21.0167 30.6998 20.93 30.5131 20.87C30.3331 20.81 30.1465 20.78 29.9531 20.78C29.7531 20.78 29.5798 20.8067 29.4331 20.86C29.2931 20.9067 29.1831 20.9767 29.1031 21.07C29.0231 21.1567 28.9831 21.2633 28.9831 21.39C28.9831 21.5033 29.0165 21.6 29.0831 21.68C29.1498 21.76 29.2398 21.8333 29.3531 21.9C29.4665 21.96 29.5965 22.0133 29.7431 22.06C29.8898 22.1 30.0431 22.1333 30.2031 22.16C30.5698 22.2333 30.8998 22.33 31.1931 22.45C31.4931 22.57 31.7498 22.7167 31.9631 22.89C32.1831 23.0633 32.3498 23.27 32.4631 23.51C32.5831 23.7433 32.6431 24.0167 32.6431 24.33C32.6431 24.8167 32.5231 25.23 32.2831 25.57C32.0498 25.9033 31.7265 26.16 31.3131 26.34C30.9065 26.5133 30.4365 26.6 29.9031 26.6Z" fill="white"/>
<defs>
<filter id="filter0_iiii_2707_15969" x="-0.4375" y="-0.1875" width="46.375" height="46.375" filterUnits="userSpaceOnUse" color-interpolation-filters="sRGB">
<feFlood flood-opacity="0" result="BackgroundImageFix"/>
<feBlend mode="normal" in="SourceGraphic" in2="BackgroundImageFix" result="shape"/>
<feColorMatrix in="SourceAlpha" type="matrix" values="0 0 0 0 0 0 0 0 0 0 0 0 0 0 0 0 0 0 127 0" result="hardAlpha"/>
<feOffset dx="-2.1875" dy="-2.1875"/>
<feGaussianBlur stdDeviation="2.1875"/>
<feComposite in2="hardAlpha" operator="arithmetic" k2="-1" k3="1"/>
<feColorMatrix type="matrix" values="0 0 0 0 1 0 0 0 0 1 0 0 0 0 1 0 0 0 1 0"/>
<feBlend mode="normal" in2="shape" result="effect1_innerShadow_2707_15969"/>
<feColorMatrix in="SourceAlpha" type="matrix" values="0 0 0 0 0 0 0 0 0 0 0 0 0 0 0 0 0 0 127 0" result="hardAlpha"/>
<feOffset dx="2.1875" dy="2.1875"/>
<feGaussianBlur stdDeviation="2.1875"/>
<feComposite in2="hardAlpha" operator="arithmetic" k2="-1" k3="1"/>
<feColorMatrix type="matrix" values="0 0 0 0 0.666667 0 0 0 0 0.666667 0 0 0 0 0.8 0 0 0 0.5 0"/>
<feBlend mode="normal" in2="effect1_innerShadow_2707_15969" result="effect2_innerShadow_2707_15969"/>
<feColorMatrix in="SourceAlpha" type="matrix" values="0 0 0 0 0 0 0 0 0 0 0 0 0 0 0 0 0 0 127 0" result="hardAlpha"/>
<feOffset dx="1.09375" dy="1.09375"/>
<feGaussianBlur stdDeviation="1.09375"/>
<feComposite in2="hardAlpha" operator="arithmetic" k2="-1" k3="1"/>
<feColorMatrix type="matrix" values="0 0 0 0 0.666667 0 0 0 0 0.666667 0 0 0 0 0.8 0 0 0 0.25 0"/>
<feBlend mode="normal" in2="effect2_innerShadow_2707_15969" result="effect3_innerShadow_2707_15969"/>
<feColorMatrix in="SourceAlpha" type="matrix" values="0 0 0 0 0 0 0 0 0 0 0 0 0 0 0 0 0 0 127 0" result="hardAlpha"/>
<feOffset dx="-1.09375" dy="-1.09375"/>
<feGaussianBlur stdDeviation="1.09375"/>
<feComposite in2="hardAlpha" operator="arithmetic" k2="-1" k3="1"/>
<feColorMatrix type="matrix" values="0 0 0 0 1 0 0 0 0 1 0 0 0 0 1 0 0 0 0.5 0"/>
<feBlend mode="normal" in2="effect3_innerShadow_2707_15969" result="effect4_innerShadow_2707_15969"/>
</filter>
<filter id="filter1_dddd_2707_15969" x="0.437499" y="0.687499" width="44.625" height="44.625" filterUnits="userSpaceOnUse" color-interpolation-filters="sRGB">
<feFlood flood-opacity="0" result="BackgroundImageFix"/>
<feColorMatrix in="SourceAlpha" type="matrix" values="0 0 0 0 0 0 0 0 0 0 0 0 0 0 0 0 0 0 127 0" result="hardAlpha"/>
<feOffset dx="-2.1875" dy="-2.1875"/>
<feGaussianBlur stdDeviation="2.1875"/>
<feColorMatrix type="matrix" values="0 0 0 0 1 0 0 0 0 1 0 0 0 0 1 0 0 0 1 0"/>
<feBlend mode="normal" in2="BackgroundImageFix" result="effect1_dropShadow_2707_15969"/>
<feColorMatrix in="SourceAlpha" type="matrix" values="0 0 0 0 0 0 0 0 0 0 0 0 0 0 0 0 0 0 127 0" result="hardAlpha"/>
<feOffset dx="2.1875" dy="2.1875"/>
<feGaussianBlur stdDeviation="2.1875"/>
<feColorMatrix type="matrix" values="0 0 0 0 0.666667 0 0 0 0 0.666667 0 0 0 0 0.8 0 0 0 0.5 0"/>
<feBlend mode="normal" in2="effect1_dropShadow_2707_15969" result="effect2_dropShadow_2707_15969"/>
<feColorMatrix in="SourceAlpha" type="matrix" values="0 0 0 0 0 0 0 0 0 0 0 0 0 0 0 0 0 0 127 0" result="hardAlpha"/>
<feOffset dx="1.09375" dy="1.09375"/>
<feGaussianBlur stdDeviation="1.09375"/>
<feColorMatrix type="matrix" values="0 0 0 0 0.666667 0 0 0 0 0.666667 0 0 0 0 0.8 0 0 0 0.25 0"/>
<feBlend mode="normal" in2="effect2_dropShadow_2707_15969" result="effect3_dropShadow_2707_15969"/>
<feColorMatrix in="SourceAlpha" type="matrix" values="0 0 0 0 0 0 0 0 0 0 0 0 0 0 0 0 0 0 127 0" result="hardAlpha"/>
<feOffset dx="-1.09375" dy="-1.09375"/>
<feGaussianBlur stdDeviation="1.09375"/>
<feColorMatrix type="matrix" values="0 0 0 0 1 0 0 0 0 1 0 0 0 0 1 0 0 0 0.5 0"/>
<feBlend mode="normal" in2="effect3_dropShadow_2707_15969" result="effect4_dropShadow_2707_15969"/>
<feBlend mode="normal" in="SourceGraphic" in2="effect4_dropShadow_2707_15969" result="shape"/>
</filter>
<radialGradient id="paint0_radial_2707_15969" cx="0" cy="0" r="1" gradientUnits="userSpaceOnUse" gradientTransform="translate(22.75 23) rotate(90) scale(15.75)">
<stop stop-color="#FF5454"/>
<stop offset="1" stop-color="#A70D0A"/>
</radialGradient>
</defs>
</svg>
