<svg width="32" height="33" viewBox="0 0 32 33" fill="none" xmlns="http://www.w3.org/2000/svg">
<rect y="0.608887" width="32" height="32" rx="6" fill="#22DEDE"/>
<g clip-path="url(#clip0_3657_14314)">
<path d="M12.1831 8.48193C11.8454 9.61525 11.5708 10.7694 11.7118 11.8804C11.8676 13.0939 12.4911 14.2888 14.1499 15.4318C12.1608 18.2076 10.9547 23.0169 11.9493 25.7371C12.3538 23.7331 12.4762 22.1078 13.9346 20.371C16.8106 19.421 18.5325 18.9757 19.1411 15.7064C19.3712 15.1609 19.6087 14.9902 20.3249 14.7898C20.7182 14.6822 21.1487 14.5115 21.145 14.0773C21.1376 12.2478 20.0948 11.539 19.0075 11.5576C17.9165 11.5761 16.7809 12.322 16.5805 13.4056C16.3579 13.4724 16.1389 13.5726 15.9237 13.7025C13.5895 12.0808 12.877 10.5163 12.1831 8.48193ZM8.1875 11.5798C8.58828 12.5892 9.16867 13.606 10.0133 14.4038C10.9139 15.2537 12.1088 15.8622 13.7565 15.9699C12.4762 15.0718 11.7229 14.1033 11.337 13.105C10.246 12.7005 9.24141 12.1773 8.1875 11.5798ZM19.3229 12.5558C19.4429 12.5562 19.5578 12.604 19.6426 12.6888C19.7274 12.7737 19.7753 12.8886 19.7756 13.0085C19.7753 13.1285 19.7274 13.2434 19.6426 13.3282C19.5578 13.4131 19.4429 13.4609 19.3229 13.4613C19.203 13.4609 19.088 13.4131 19.0032 13.3282C18.9184 13.2434 18.8706 13.1285 18.8702 13.0085C18.8706 12.8886 18.9184 12.7737 19.0032 12.6888C19.088 12.604 19.203 12.5562 19.3229 12.5558ZM21.5495 14.6376C21.4196 14.8269 21.286 15.0162 20.952 15.1275C22.21 16.0663 23.8874 17.9663 24.8114 19.024C24.3958 17.7919 22.7407 15.7361 21.5495 14.6376Z" fill="black"/>
</g>
<defs>
<clipPath id="clip0_3657_14314">
<rect width="16" height="16" fill="white" transform="translate(8 8.60889)"/>
</clipPath>
</defs>
</svg>
