<svg width="32" height="33" viewBox="0 0 32 33" fill="none" xmlns="http://www.w3.org/2000/svg">
<rect y="0.608887" width="32" height="32" rx="6" fill="#90E251"/>
<g clip-path="url(#clip0_3657_14267)">
<path d="M14.3994 8.66565C15.8274 8.65421 17.3957 9.42063 17.7721 11.4874C17.1964 10.2756 15.2223 7.91879 12.6466 9.69296L13.1374 9.86049C15.1669 8.79075 16.2739 11.6166 14.4695 12.469C12.7389 13.2882 12.9234 14.1516 14.8717 13.2217C11.4806 15.7642 17.5212 20.3103 17.5212 20.3103C16.2887 20.0335 14.9714 19.4025 13.4548 17.9228L13.7795 18.8786C11.0599 17.5243 11.2334 14.3287 11.2334 14.3287L10.9787 15.587C9.44738 11.3767 15.1632 11.6535 14.0193 10.2133C12.0784 11.3435 9.44 11.1 9.44 11.1L12.1706 9.50993C12.6245 9.00034 13.4843 8.67303 14.3994 8.66565ZM16.3773 13.5243C18.7758 13.4985 22.7987 16.314 22.4824 22.9154C22.4824 22.9154 21.2887 21.8158 20.2592 19.5501L20.6872 21.6424C13.1559 16.6018 13.9012 13.5501 16.3773 13.5243ZM16.0046 20.4357C16.2075 20.5317 16.4142 20.6166 16.6245 20.6977L16.6946 22.7752H16.6872C16.5212 23.4689 16.3182 24.1811 16.2407 24.9154H15.6762C15.9197 24.1811 16.119 23.5095 16.2739 22.7383C16.2739 22.7383 16.0488 20.8084 16.0046 20.4357ZM17.6909 21.0631C17.8902 21.1258 18.0821 21.1774 18.2666 21.2254C18.1079 22.4579 17.9787 23.7752 17.9787 24.9154H17.4584C17.654 23.5501 17.6725 22.4247 17.6909 21.0631Z" fill="black"/>
</g>
<defs>
<clipPath id="clip0_3657_14267">
<rect width="16" height="16" fill="white" transform="translate(8 8.60889)"/>
</clipPath>
</defs>
</svg>
