<svg width="32" height="33" viewBox="0 0 32 33" fill="none" xmlns="http://www.w3.org/2000/svg">
<rect y="0.608887" width="32" height="32" rx="6" fill="#FBBEF7"/>
<path d="M20.0983 9.18848C18.3308 9.18865 16.8472 10.7202 18.7295 14.9495C19.7539 15.5403 20.1918 16.5937 19.9066 17.5809C19.5843 18.6966 18.4176 19.6733 16.5106 19.9745C14.9278 20.2244 13.4007 20.0596 12.1893 19.1934C11.6657 18.819 11.2096 18.3178 10.8358 17.6786C9.91066 17.3667 9.12443 17.0779 8.68336 16.8612C8.67643 17.2195 8.75071 17.6271 8.91518 18.0552L7.65511 17.8994L9.48815 19.2979L8.54069 19.7161L10.4163 20.1265C10.8024 20.4681 11.2579 20.7942 11.7898 21.0891L11.7898 21.0894C12.7073 21.5982 18.6595 21.4979 19.4718 21.1097C21.8389 19.9787 21.9888 17.921 20.4755 15.222C18.4583 11.6241 19.3594 10.5081 20.5822 10.5438C20.6149 10.9139 20.8026 11.3152 21.1304 11.6437C21.3322 11.8461 21.5616 11.995 21.7944 12.0875C22.4753 12.4888 23.1618 12.7792 23.9766 12.8191C24.1774 12.8219 24.298 12.4782 24.0992 12.4592C23.6913 12.3796 23.3467 12.1649 23.0673 11.8998C23.479 11.4436 23.3432 10.6129 22.7511 10.0193C22.363 9.63043 21.8735 9.43812 21.4539 9.46758C21.0176 9.28804 20.5487 9.18851 20.0982 9.18858L20.0983 9.18848ZM22.0881 10.5045C22.3046 10.5045 22.473 10.673 22.473 10.8895C22.473 11.106 22.3046 11.2745 22.0881 11.2745C21.8715 11.2745 21.703 11.106 21.703 10.8895C21.703 10.6731 21.8716 10.5045 22.0881 10.5045ZM14.7526 14.6863C14.5379 14.6875 14.3263 14.6958 14.1135 14.7077C13.0854 14.765 12.0183 14.914 10.5616 14.7556C11.5668 16.1635 13.1405 16.583 14.6718 16.4797C13.5208 17.0081 12.0112 16.7875 10.8605 16.0983C10.8772 16.1504 10.8942 16.2017 10.9116 16.2523C11.5123 17.425 13.1059 17.7349 14.0351 17.7312C13.4531 18.153 12.5511 18.1673 11.7149 17.8151C11.9728 18.1574 12.2602 18.4363 12.5716 18.6589C13.6025 19.3961 14.9329 19.5586 16.4081 19.3255C18.1412 19.0518 19.0432 18.2024 19.2754 17.3986C19.5077 16.5946 19.1489 15.7822 18.0605 15.3548C16.779 14.8516 15.8378 14.7036 14.9686 14.6877C14.8962 14.6864 14.8242 14.6859 14.7526 14.6863V14.6863ZM9.25155 20.9076C8.21711 21.1182 7.60156 21.3812 7.60156 21.6666C7.60156 22.358 11.2072 22.9185 15.6549 22.9185C20.1026 22.9185 23.7082 22.358 23.7082 21.6666C23.7082 21.3819 23.0956 21.1195 22.0657 20.9091C22.4917 21.0361 22.7309 21.1778 22.7309 21.3273C22.7309 21.8727 19.5634 22.3149 15.6561 22.3149C11.7488 22.3149 8.58126 21.8727 8.58126 21.3273C8.58126 21.1772 8.82236 21.035 9.25148 20.9076H9.25155Z" fill="black"/>
</svg>
