<svg width="32" height="33" viewBox="0 0 32 33" fill="none" xmlns="http://www.w3.org/2000/svg">
<rect y="0.608887" width="32" height="32" rx="6" fill="#D3D5D3"/>
<path d="M17.4036 11.9419C17.4036 11.9419 18.4443 8.94192 21.2193 10.6086C21.2193 10.6086 24.0809 10.8586 24.2109 11.7336C24.2109 11.7336 21.5659 12.2753 20.8723 13.6086C20.1786 14.9419 21.9129 15.9419 19.0946 18.8169C19.0946 18.8169 17.7506 20.2753 15.6693 20.2753C15.6693 20.2753 8.33594 21.2753 7.33594 20.2753" fill="#3F3F3F"/>
<path d="M7.375 20.2339C7.375 20.2339 15.6667 12.6089 18.3333 12.9423C21 13.2756 19 17.3589 16.5 18.8173C14 20.2756 7.375 20.2339 7.375 20.2339Z" fill="#9B9B9A"/>
<path d="M14.875 23.1506L16.3333 22.6089" stroke="black" stroke-width="0.6" stroke-linecap="round" stroke-linejoin="round"/>
<path d="M18.2837 14.4322C18.2199 14.415 18.1519 14.4231 18.0939 14.4547C18.036 14.4864 17.9924 14.5392 17.9724 14.6022C17.744 15.3245 16.9504 16.9812 14.4764 17.9632L14.4784 17.9662C14.4784 17.9662 14.2244 18.0338 14.3307 18.3085C14.4227 18.5462 14.6574 18.4938 14.7197 18.4752C17.487 17.3658 18.3137 15.4378 18.5354 14.6952C18.555 14.6295 18.5304 14.4795 18.2837 14.4322Z" fill="black"/>
<path d="M14.5391 18.2342C14.5391 18.2342 17.3307 17.6092 18.3307 14.2759" stroke="black" stroke-width="0.6" stroke-linecap="round" stroke-linejoin="round"/>
<path d="M17.6641 11.9419C17.6641 11.9419 18.6641 8.94192 21.3307 10.6086C21.3307 10.6086 24.0807 10.8586 24.2057 11.7336C24.2057 11.7336 21.6641 12.2753 20.9974 13.6086C20.3307 14.9419 21.9974 15.9419 19.2891 18.8169C19.2891 18.8169 17.9974 20.2753 15.9974 20.2753L15.6641 20.9419L16.3307 22.6086L18.3307 22.9419" stroke="black" stroke-width="0.6" stroke-linecap="round" stroke-linejoin="round"/>
<path d="M7.375 20.2339C7.375 20.2339 15.6667 12.6089 18.3333 12.9423C21 13.2756 19 17.3589 16.5 18.8173C14 20.2756 7.375 20.2339 7.375 20.2339Z" stroke="black" stroke-width="0.6" stroke-linecap="round" stroke-linejoin="round"/>
</svg>
