<svg width="32" height="33" viewBox="0 0 32 33" fill="none" xmlns="http://www.w3.org/2000/svg">
<rect y="0.608887" width="32" height="32" rx="6" fill="#74D5FF"/>
<g clip-path="url(#clip0_3657_14325)">
<path d="M15.2881 12.1254C15.3958 12.2168 15.5086 12.3032 15.6338 12.3853C15.7024 12.4289 15.7502 12.4607 15.8585 12.4992C15.915 12.5203 15.9437 12.5248 15.9766 12.5335C15.989 12.5349 15.9963 12.5335 16.007 12.5338C15.9841 12.6289 15.972 12.7262 15.971 12.824C15.971 13.5204 16.5225 14.0849 17.2023 14.0849C17.8163 14.0849 18.3208 13.6239 18.4139 13.0226C18.4601 13.0603 18.4978 13.1013 18.5478 13.1371C18.6794 13.2254 18.8805 13.3041 19.0501 13.2887C19.2909 13.2639 19.3893 13.1607 19.5142 13.0774C19.7346 12.8974 19.9305 12.6893 20.0969 12.4584C19.8463 12.5816 19.6059 12.7166 19.3646 12.8122C19.2543 12.8603 19.1061 12.9019 19.0735 12.8803C18.9702 12.8583 18.912 12.8195 18.8271 12.743C18.5006 12.4424 18.1077 11.4766 17.1486 11.4766C16.4818 11.4766 16.0222 12.0565 16.0222 12.0565C16.0222 12.0565 15.6644 11.9744 15.4487 11.8652L14.7031 11.5188C14.8778 11.7421 15.0772 11.9373 15.2881 12.1254ZM17.2023 11.9682C17.6638 11.9682 18.0376 12.3515 18.0376 12.824C18.0376 13.2965 17.6638 13.6799 17.2023 13.6799C16.7408 13.6799 16.3664 13.2965 16.3664 12.824C16.3664 12.3515 16.7408 11.9682 17.2023 11.9682Z" fill="black"/>
<path d="M17.2031 13.2461C17.4361 13.2461 17.625 13.0572 17.625 12.8242C17.625 12.5912 17.4361 12.4023 17.2031 12.4023C16.9701 12.4023 16.7812 12.5912 16.7812 12.8242C16.7812 13.0572 16.9701 13.2461 17.2031 13.2461Z" fill="black"/>
<path d="M22.3613 20.2224C22.4634 19.1427 21.9181 18.4151 21.4427 17.7823C21.0313 17.2347 20.7616 16.8347 20.8046 16.3552C21.2136 16.4349 21.6182 16.5358 22.0168 16.6573C23.1693 17.0077 23.0225 18.2317 23.0149 18.2888L22.8918 19.1604L23.4866 18.5295C23.5403 18.4724 24.7967 17.1157 24.336 15.4985C24.0224 14.396 23.0076 13.2468 22.0514 12.7664C21.9282 12.2878 21.7175 11.8116 21.4121 11.3523C20.1465 9.44939 17.6566 8.17139 15.2156 8.17139C14.5299 8.17139 13.8631 8.27264 13.2347 8.47204L12.1809 8.80673L13.2629 9.02611C13.3249 9.03867 13.3818 9.05657 13.4336 9.07982C12.8272 9.13523 12.0811 9.30201 11.3591 9.72164C10.9639 9.94382 10.5938 10.2436 10.2591 10.6126L9.92978 10.976L10.3992 11.0868C10.7108 11.1608 10.9575 11.3009 11.1358 11.5045C10.5525 11.7694 9.86425 12.2411 9.39569 13.0654C8.95975 13.6828 8.70719 14.5085 8.64531 15.5202L8.61016 16.0903L8.99687 15.8284C8.66528 16.3043 8.41159 16.8401 8.35759 17.4124C8.35759 17.4124 8.81209 16.7577 9.46684 16.6258C9.45503 16.6907 9.44097 16.7543 9.43141 16.8209C8.07466 17.7114 7.81731 19.6703 7.81731 19.6703C8.70691 18.7692 9.43338 18.7433 9.43338 18.7433C7.85809 19.7459 7.5625 22.5975 7.5625 22.5975C8.20994 22.0097 8.82953 21.6289 8.82953 21.6289C7.50119 23.6249 8.35563 25.0464 8.35563 25.0464H24.1472C24.1472 25.0464 24.4257 21.9704 22.3613 20.2224ZM23.8055 15.6599C24.0108 16.3805 23.7681 17.062 23.5116 17.5258C23.3727 16.9635 23.0003 16.3597 22.1729 16.1085C21.1764 15.8056 20.3928 15.6971 19.7631 15.6099C18.9903 15.5027 18.4553 15.4285 17.9547 15.0794C18.7869 14.9391 19.4422 14.9062 19.8731 14.9062C20.4111 14.9062 20.7067 14.9563 20.7098 14.9568L21.0732 15.0195L21.0307 14.6415C20.9565 13.9817 20.984 13.2724 21.087 13.1146C21.125 13.1075 21.1655 13.1039 21.2085 13.1037C22.0817 13.1037 23.4655 14.4652 23.8055 15.6599ZM20.8938 22.2398L20.7236 22.4825C20.3116 21.4641 19.1798 20.3352 19.1798 20.3352L19.4383 21.3958C19.4419 21.4095 19.7429 22.6726 19.4473 23.6528C18.423 23.0039 18.1614 22.3607 18.1594 22.3565L17.9468 21.7847L17.6591 22.3205C17.6529 22.3323 17.0308 23.4689 15.6538 24.1939C14.7501 23.1772 14.5229 21.5468 14.5203 21.5296L14.4183 20.7869L14.0138 21.4138C14.0096 21.4199 13.6068 22.0235 12.229 22.3543C11.0548 20.5379 11.3923 19.0468 11.3957 19.0327L11.6505 18.0047L10.9302 18.761C10.9302 18.761 10.8191 18.878 10.2662 19.4655C10.0997 18.9922 10.0037 18.5225 9.97956 18.0506C9.80912 16.8772 10.1939 15.8833 10.5466 15.2558L10.7721 14.8547L10.3244 14.8263C10.2819 14.8235 10.2393 14.8221 10.1967 14.8221C9.88506 14.8221 9.56472 14.8935 9.25084 15.0314C9.34731 14.3693 9.54812 13.8189 9.8575 13.379C10.3483 12.5175 11.1026 12.1049 11.6491 11.9103L11.95 11.8032L11.8052 11.5101C11.6292 11.1515 11.3378 10.8624 10.9777 10.6894C11.183 10.5055 11.3994 10.3495 11.6268 10.2214C12.4712 9.73064 13.3574 9.62742 13.9517 9.62742L14.4565 9.63473L14.2917 9.23114C14.2363 9.09203 14.1576 8.96336 14.0591 8.85061C14.4404 8.77842 14.8276 8.74226 15.2156 8.74261C17.447 8.74261 19.8076 9.94861 20.9562 11.6752C21.1388 11.948 21.2902 12.2405 21.4076 12.5471C21.3416 12.5369 21.275 12.5315 21.2082 12.5308C21.112 12.5308 21.0201 12.5414 20.9326 12.5628C20.9267 12.5642 20.921 12.5673 20.9146 12.569C20.8853 12.3544 20.813 12.1457 20.6789 11.9829C20.714 12.225 20.7306 12.4481 20.7332 12.6736C20.6968 12.7075 20.6647 12.7457 20.6375 12.7873C20.5889 12.5526 20.5173 12.3233 20.4238 12.1027C20.2193 11.6367 19.9046 11.2035 19.4844 10.9482C19.7977 11.323 20.0547 11.7413 20.2474 12.1902C20.3611 12.4489 20.4556 12.7172 20.5413 12.9917C20.4187 13.3427 20.4106 13.8546 20.4477 14.353C20.2997 14.342 20.1074 14.3333 19.8731 14.3333C19.323 14.3333 18.4258 14.3842 17.2769 14.6258L16.7813 14.7299L17.1334 15.105C17.9069 15.9288 18.6544 16.0323 19.6897 16.1758C19.8697 16.2011 20.0579 16.2275 20.2545 16.2579C20.1642 17.0071 20.5897 17.5781 21.0057 18.1324C21.7144 19.0769 22.4465 20.0519 20.8938 22.2398Z" fill="black"/>
<path d="M20.9863 12.5593C21.037 12.345 21.0276 12.1578 20.9652 12.1416C20.9027 12.1253 20.8107 12.2857 20.76 12.5003C20.7088 12.7148 20.7187 12.9017 20.7815 12.9182C20.8432 12.9341 20.935 12.7737 20.9863 12.5593ZM21.4703 17.0867C21.5136 17.2513 21.5392 17.42 21.5466 17.59C21.4648 17.5257 21.38 17.4651 21.2925 17.4086C21.1519 17.3194 21.0064 17.2402 20.856 17.1712C20.5549 17.0378 20.238 16.9433 19.913 16.8899L19.6082 16.8402L19.7596 17.1452C19.9262 17.479 20.0415 17.836 20.1017 18.2041C20.132 18.3878 20.148 18.5732 20.1564 18.7583C20.158 18.7993 20.1567 18.841 20.1575 18.8829C19.9169 18.7031 19.6796 18.5188 19.4457 18.3303C19.1033 18.0529 18.7748 17.7589 18.4612 17.4493L17.8249 16.818L18.0369 17.7035C18.1473 18.1654 18.1889 18.6397 18.1138 19.0916C18.078 19.3151 18.0139 19.5331 17.9231 19.7404C17.8656 19.8711 17.7973 19.9967 17.7186 20.1159C17.5709 19.9823 17.4268 19.8448 17.2864 19.7035C17.0862 19.5008 16.8931 19.2913 16.7075 19.0753C16.3386 18.6432 15.9981 18.1793 15.7587 17.6725L15.5338 17.1985L15.4238 17.6912C15.3495 18.0339 15.2343 18.3666 15.0808 18.6819C15.0034 18.8374 14.9163 18.9876 14.8188 19.1288C14.741 19.2437 14.651 19.3544 14.5585 19.451C14.4445 19.3416 14.3394 19.2233 14.2441 19.0973C14.1259 18.9386 14.0218 18.7698 13.9332 18.5928C13.7531 18.2327 13.6424 17.8419 13.607 17.4408C13.5966 17.852 13.6714 18.2609 13.8268 18.6418C13.9044 18.8338 13.9993 19.0199 14.1105 19.195C14.2231 19.372 14.3429 19.5362 14.496 19.6929L14.5583 19.7568L14.6309 19.6997C14.7859 19.5783 14.9069 19.4466 15.0257 19.3022C15.1413 19.1571 15.2444 19.0016 15.3374 18.8403C15.4492 18.6399 15.5456 18.4314 15.6256 18.2163C15.8428 18.6268 16.1064 19.0045 16.3869 19.3621C16.5719 19.5958 16.7672 19.8212 16.9722 20.0377C17.1771 20.2551 17.3827 20.461 17.6097 20.6659L17.7759 20.8151L17.9241 20.661C18.1311 20.4446 18.2609 20.2282 18.3782 19.9803C18.4899 19.7332 18.5695 19.4727 18.6151 19.2054C18.6633 18.9181 18.6771 18.6261 18.6561 18.3356C18.8182 18.476 18.9823 18.6127 19.1483 18.7458C19.5036 19.0302 19.8725 19.2973 20.2537 19.5459L20.5767 19.758L20.6071 19.3794C20.6252 19.1536 20.6193 18.9562 20.6034 18.7463C20.588 18.5395 20.5524 18.3344 20.506 18.1313C20.438 17.8392 20.3399 17.5516 20.2073 17.2814C20.3976 17.3163 20.5861 17.3611 20.7702 17.4275C20.915 17.4776 21.0566 17.5375 21.1951 17.6072C21.3312 17.6767 21.47 17.7584 21.5877 17.848L21.7416 17.9648L21.7273 17.7842C21.7068 17.5284 21.6497 17.2889 21.5598 17.0564C21.47 16.8257 21.3332 16.6123 21.1589 16.4481C21.3119 16.6362 21.4066 16.8603 21.4703 17.0867ZM13.3798 15.4063C13.5828 15.3368 13.7709 15.23 13.9345 15.0912C13.952 15.2346 13.9741 15.3774 14.0007 15.5194C14.0537 15.8089 14.1192 16.096 14.1971 16.3798L14.2419 16.5374L14.3661 16.47C14.6768 16.3016 14.9721 16.1062 15.2486 15.886C15.3885 15.7759 15.5183 15.6535 15.6366 15.5203C15.7538 15.387 15.8617 15.2324 15.9006 15.0532C15.8365 15.223 15.7093 15.3468 15.5822 15.4608C15.453 15.5748 15.3101 15.6709 15.1663 15.7636C14.9211 15.915 14.6668 16.0512 14.4049 16.1715C14.3706 15.9422 14.3374 15.7116 14.3145 15.4821C14.2857 15.1994 14.2574 14.9165 14.2615 14.6435L14.2709 14.0062L13.9241 14.5278C13.7674 14.7634 13.5269 14.9286 13.2475 15.0169C13.1056 15.0611 12.96 15.092 12.8125 15.1092C12.7889 15.1117 12.7648 15.1121 12.741 15.1141C12.8497 14.9545 12.9544 14.7922 13.055 14.6274C13.2194 14.3388 13.3782 14.0429 13.4831 13.713L13.5842 13.3958L13.3231 13.5543C13.1715 13.6478 13.0101 13.7243 12.8418 13.7824C12.6711 13.8373 12.4925 13.8793 12.3046 13.8782C12.5724 13.9562 12.8563 13.9414 13.1269 13.8724C13.0192 14.061 12.9036 14.2464 12.7769 14.4245C12.5993 14.6874 12.3991 14.9399 12.2059 15.1852L11.9741 15.4794L12.3401 15.5156C12.5155 15.5329 12.6921 15.5325 12.8673 15.5143C13.0403 15.499 13.2126 15.4641 13.3798 15.4063ZM11.9848 18.1825C11.8868 18.2719 11.7912 18.3634 11.6981 18.4571C11.6968 18.4378 11.6942 18.4175 11.693 18.3985C11.6869 18.2907 11.6876 18.1827 11.6952 18.075C11.7097 17.8598 11.7624 17.654 11.8813 17.4513C11.6703 17.5519 11.5329 17.7868 11.4755 18.0265C11.4476 18.1481 11.4349 18.2727 11.4375 18.3974C11.4384 18.5239 11.4528 18.6429 11.4841 18.7733L11.5434 19.0213L11.7027 18.8368C11.9393 18.5624 12.1878 18.2879 12.4607 18.056C12.4408 18.2564 12.4574 18.4616 12.5318 18.6464C12.4996 18.3784 12.5547 18.1216 12.6429 17.8892L12.7172 17.693L12.5294 17.7921C12.3284 17.8972 12.1543 18.0383 11.9848 18.1825ZM12.7664 12.012C12.4863 11.8571 12.1677 11.8106 11.859 11.8338C11.5523 11.8623 11.2397 11.9755 11.0292 12.2097C11.3222 12.1191 11.5955 12.0627 11.8836 12.0388C12.1705 12.0118 12.459 12.0154 12.7664 12.012ZM13.2584 11.9078C13.0504 11.6553 12.7672 11.4862 12.4682 11.3848C12.1693 11.2887 11.8337 11.2675 11.5517 11.3971C11.846 11.4271 12.1362 11.4888 12.4172 11.5812C12.6972 11.6704 12.9676 11.7884 13.2584 11.9078ZM13.315 11.5535C13.2518 11.3317 13.1038 11.1526 12.9288 11.0179C12.752 10.8881 12.5287 10.8011 12.3149 10.845C12.5033 10.9629 12.661 11.064 12.8194 11.1843C12.9798 11.3009 13.1317 11.4281 13.315 11.5535Z" fill="black"/>
</g>
<defs>
<clipPath id="clip0_3657_14325">
<rect width="18" height="18" fill="white" transform="translate(7 7.60889)"/>
</clipPath>
</defs>
</svg>
