<svg width="32" height="33" viewBox="0 0 32 33" fill="none" xmlns="http://www.w3.org/2000/svg">
<rect y="0.608887" width="32" height="32" rx="6" fill="#E199FB"/>
<g clip-path="url(#clip0_3657_14277)">
<path d="M12.75 14.5129C12.5433 14.5129 12.37 14.4429 12.23 14.3029C12.09 14.1629 12.02 13.9896 12.02 13.7829C12.02 13.5762 12.09 13.4026 12.23 13.2619C12.37 13.1212 12.5433 13.0512 12.75 13.0519C12.9567 13.0526 13.13 13.1226 13.27 13.2619C13.41 13.4012 13.48 13.5746 13.48 13.7819C13.48 13.9892 13.41 14.1626 13.27 14.3019C13.1307 14.4419 12.9573 14.5119 12.75 14.5119M19.25 14.5119C19.0433 14.5119 18.87 14.4422 18.73 14.3029C18.59 14.1629 18.52 13.9896 18.52 13.7829C18.52 13.5762 18.59 13.4026 18.73 13.2619C18.8693 13.1219 19.0427 13.0519 19.25 13.0519C19.4573 13.0519 19.6307 13.1219 19.77 13.2619C19.91 13.4012 19.98 13.5746 19.98 13.7819C19.98 13.9886 19.91 14.1619 19.77 14.3019C19.6307 14.4419 19.4573 14.5119 19.25 14.5119ZM16 25.6089C14.046 25.6089 12.3907 24.9142 11.034 23.5249C9.678 22.1342 9 20.4572 9 18.4939V13.7819C9 11.9886 9.69733 10.5116 11.092 9.35089C12.4867 8.19022 14.1227 7.60955 16 7.60889C17.7867 7.60889 19.4 8.17422 20.84 9.30489C22.28 10.4356 23 11.9279 23 13.7819V23.8399C23 24.0466 22.9233 24.2266 22.77 24.3799C22.6167 24.5332 22.4367 24.6096 22.23 24.6089H22C20.9613 24.6089 20.0733 24.2402 19.336 23.5029C18.5987 22.7656 18.2303 21.8779 18.231 20.8399V20.3469C18.231 20.1802 18.179 20.0556 18.075 19.9729C17.9717 19.8889 17.8583 19.8469 17.735 19.8469C17.6117 19.8469 17.4963 19.8889 17.389 19.9729C17.2817 20.0569 17.229 20.1816 17.231 20.3469V20.8399C17.231 21.7166 17.4477 22.5159 17.881 23.2379C18.3143 23.9592 18.8867 24.5259 19.598 24.9379C19.7713 25.0446 19.8347 25.1829 19.788 25.3529C19.7413 25.5229 19.6413 25.6082 19.488 25.6089H16ZM16 18.9359C17.596 18.9359 18.995 18.4542 20.197 17.4909C21.399 16.5276 22 15.2912 22 13.7819C22 13.1426 21.884 12.5442 21.652 11.9869C21.42 11.4296 21.095 10.9382 20.677 10.5129C19.5203 10.5849 18.535 11.0169 17.721 11.8089C16.907 12.6016 16.5 13.5736 16.5 14.7249C16.5 14.8662 16.452 14.9849 16.356 15.0809C16.26 15.1769 16.141 15.2249 15.999 15.2249C15.857 15.2249 15.7383 15.1769 15.643 15.0809C15.5477 14.9849 15.5 14.8662 15.5 14.7249C15.5 13.5736 15.09 12.6002 14.27 11.8049C13.4487 11.0102 12.4567 10.5882 11.294 10.5389C10.8947 10.9642 10.579 11.4512 10.347 11.9999C10.115 12.5486 9.99933 13.1426 10 13.7819C10 15.2912 10.601 16.5276 11.803 17.4909C13.005 18.4542 14.404 18.9359 16 18.9359Z" fill="black"/>
</g>
<defs>
<clipPath id="clip0_3657_14277">
<rect width="24" height="24" fill="white" transform="translate(4 4.60889)"/>
</clipPath>
</defs>
</svg>
