<svg width="32" height="33" viewBox="0 0 32 33" fill="none" xmlns="http://www.w3.org/2000/svg">
<rect y="0.608887" width="32" height="32" rx="6" fill="#FF9E3D"/>
<g clip-path="url(#clip0_3657_14304)">
<path d="M21.7178 21.9922C21.4425 21.9032 21.1824 21.8191 20.9629 21.7368C20.6665 21.6257 20.5972 21.5746 20.5819 21.5545C20.598 21.5397 20.6489 21.5171 20.6838 21.5017C20.8048 21.448 20.9705 21.3745 20.9799 21.2072C20.991 21.0056 20.8008 20.6178 19.0276 19.5828C17.6537 18.7809 17.2179 18.041 16.7132 17.1841C16.4305 16.7042 16.1382 16.2079 15.6547 15.6423C15.5203 15.4851 15.3489 15.308 15.1505 15.1029C14.3287 14.2536 13.0869 12.9702 12.9997 11.4345C12.8895 9.48554 11.4627 8.60889 10.4847 8.60889L10.4606 8.60903C9.82921 8.61796 9.39674 9.03109 9.14511 9.3762C9.02822 9.53693 8.81304 9.74042 8.66998 9.85028C8.49568 9.98369 8.35854 10.1434 8.26258 10.3248C8.21825 10.4077 8.21472 10.4881 8.25265 10.5515C8.3007 10.6317 8.40679 10.6724 8.53862 10.657C8.64199 10.645 8.73661 10.6392 8.82789 10.6392C9.25731 10.6392 9.56812 10.7661 9.75159 11.0165C10.0131 11.3733 10.012 11.9772 9.74839 12.8113C8.99904 15.183 8.78166 16.9365 9.08378 18.172C9.47254 19.7626 10.0095 20.7319 11.8659 21.6155C12.0437 21.7002 12.241 21.7739 12.4538 21.8399C12.3194 22.2493 12.1712 22.654 12.0382 22.9102C12.0282 22.9295 12.0223 22.9523 12.0165 22.9742C12.0141 22.9835 12.0106 22.9966 12.0072 23.0067C11.9782 22.9901 11.9223 22.9477 11.872 22.9094C11.7894 22.8467 11.6866 22.7686 11.5776 22.7027C11.3752 22.5804 11.2182 22.5235 11.0834 22.5235C10.98 22.5235 10.9042 22.557 10.8436 22.5898C10.8285 22.598 10.793 22.6172 10.8019 22.6562C10.8109 22.6954 10.8471 22.6972 10.8855 22.6991C10.984 22.7039 11.2396 22.7164 11.4849 22.977C11.3743 22.9738 11.1312 22.9255 10.743 22.8294C10.6978 22.8182 10.6531 22.8129 10.61 22.8129C10.2887 22.8129 10.1296 23.119 10.0697 23.2339C10.0619 23.249 10.0563 23.2618 10.053 23.2665L10.0315 23.2965L10.0577 23.3577H10.0881C10.1027 23.3577 10.1112 23.3468 10.1339 23.3338C10.4924 23.1281 10.9113 23.0935 11.3274 23.2474C11.4488 23.2923 11.518 23.3488 11.5561 23.3931C11.5447 23.4017 11.534 23.4109 11.5235 23.4201C11.416 23.4156 11.3303 23.4135 11.2593 23.4135C11.1454 23.4135 11.0834 23.4189 11.0117 23.4253C10.9426 23.4314 10.8643 23.4383 10.7193 23.4413C10.6154 23.4435 10.5176 23.4595 10.4364 23.4877C10.2044 23.568 10.0944 23.7193 10.0893 23.7265L9.94227 23.9407L9.93798 23.9484C9.92078 23.9873 9.91925 24.0181 9.93349 24.0399C9.95154 24.0677 9.98727 24.0744 10.0276 24.0489C10.3379 23.8527 10.5901 23.7611 10.8214 23.7611C10.9703 23.7611 11.0949 23.7991 11.2154 23.836C11.332 23.8717 11.4527 23.9083 11.5905 23.9083C11.6441 23.9083 11.6964 23.9023 11.7506 23.8913C11.8269 23.8758 11.8984 23.8577 11.9676 23.8413C12.143 23.7998 12.2946 23.7616 12.46 23.7616C12.5384 23.7616 12.6175 23.7703 12.6987 23.7877C12.7638 23.8286 12.8013 23.8703 12.8206 23.9001C12.6865 23.894 12.584 23.8911 12.5012 23.8911C12.3873 23.8911 12.3253 23.8966 12.2536 23.9029C12.1845 23.909 12.1062 23.9159 11.9612 23.919C11.8574 23.9212 11.7595 23.9372 11.6783 23.9653C11.4463 24.0456 11.3363 24.197 11.3312 24.2041L11.1842 24.4183L11.1799 24.426C11.1627 24.4649 11.1612 24.4957 11.1754 24.5176C11.1935 24.5453 11.2292 24.552 11.2695 24.5265C11.5798 24.3303 11.832 24.2387 12.0633 24.2387C12.2123 24.2387 12.3368 24.2767 12.4573 24.3136C12.5739 24.3493 12.6946 24.3859 12.8325 24.3859C12.886 24.3859 12.9384 24.3799 12.9925 24.369C13.0688 24.3534 13.1403 24.3353 13.2095 24.3189C13.3849 24.2774 13.5365 24.2392 13.7019 24.2392C13.9835 24.2392 14.2734 24.3467 14.6419 24.5985L14.6584 24.5994H14.6731L14.7036 24.6086L14.7167 24.5912C14.732 24.5598 14.732 24.5598 14.6154 24.4107C14.4806 24.2384 14.1226 23.7808 14.1456 23.6572C14.2081 23.3217 14.3664 22.7716 14.5276 22.2501C14.8413 22.2935 15.1673 22.3353 15.5044 22.3783C16.2777 22.4769 17.1542 22.5888 18.0586 22.7466C18.4783 22.8199 18.9205 22.9018 19.3481 22.981C20.7274 23.2365 22.1536 23.5007 22.9827 23.5007C23.3648 23.5007 23.6033 23.4453 23.7117 23.3312C23.7608 23.2796 23.7838 23.2167 23.7802 23.144C23.7555 22.6509 22.6729 22.3009 21.7178 21.9922ZM13.2585 23.4519C13.2561 23.4612 13.2527 23.4743 13.2493 23.4844C13.2202 23.4678 13.1643 23.4254 13.114 23.3871C13.0551 23.3424 12.9857 23.29 12.9115 23.2396C12.9039 23.2155 12.9008 23.1951 12.9036 23.1799C12.9559 22.8995 13.075 22.4693 13.2067 22.0311C13.3824 22.0677 13.5658 22.1014 13.7552 22.1333C13.6062 22.6021 13.4331 23.0932 13.2802 23.3879C13.2702 23.4072 13.2643 23.43 13.2585 23.4519Z" fill="black"/>
</g>
<defs>
<clipPath id="clip0_3657_14304">
<rect width="16" height="16" fill="white" transform="translate(8 8.60889)"/>
</clipPath>
</defs>
</svg>
