<svg width="16" height="16" viewBox="0 0 16 16" fill="none" xmlns="http://www.w3.org/2000/svg">
<path d="M7.8458 6.72028C7.17899 6.72028 6.51218 6.60261 5.87805 6.3738C5.6231 6.28228 5.49235 6.00117 5.58387 5.74622C5.68193 5.49126 5.96304 5.36051 6.218 5.45204C7.27051 5.8312 8.42763 5.8312 9.48014 5.45204C9.7351 5.36051 10.0162 5.49126 10.1077 5.74622C10.1993 6.00117 10.0685 6.28228 9.81355 6.3738C9.17942 6.60261 8.51261 6.72028 7.8458 6.72028Z" fill="#707070"/>
<path d="M12.4663 14.8727C12.1329 14.8727 11.7668 14.7747 11.4138 14.572L8.22359 12.8004C8.03401 12.6958 7.66138 12.6958 7.47179 12.8004L4.28156 14.572C3.63436 14.9316 2.97409 14.9708 2.47071 14.6701C1.96733 14.3759 1.67969 13.781 1.67969 13.0423V3.83111C1.67969 2.17062 3.03292 0.817383 4.69341 0.817383H11.002C12.6625 0.817383 14.0157 2.17062 14.0157 3.83111V13.0423C14.0157 13.781 13.7281 14.3759 13.2247 14.6701C12.9959 14.8073 12.7344 14.8727 12.4663 14.8727ZM7.84442 11.7413C8.15168 11.7413 8.4524 11.8067 8.69428 11.944L11.8845 13.7156C12.2179 13.9052 12.5252 13.9444 12.7213 13.8267C12.9174 13.7091 13.0286 13.428 13.0286 13.0423V3.83111C13.0286 2.71322 12.1133 1.79799 10.9954 1.79799H4.69341C3.57552 1.79799 2.66029 2.71322 2.66029 3.83111V13.0423C2.66029 13.428 2.77143 13.7156 2.96755 13.8267C3.16367 13.9379 3.46439 13.9052 3.80433 13.7156L6.99457 11.944C7.23645 11.8067 7.53717 11.7413 7.84442 11.7413Z" fill="#707070"/>
<path d="M12.4663 14.8727C12.1329 14.8727 11.7668 14.7747 11.4138 14.572L8.22359 12.8004C8.03401 12.6958 7.66138 12.6958 7.47179 12.8004L4.28156 14.572C3.63436 14.9316 2.97409 14.9708 2.47071 14.6701C1.96733 14.3759 1.67969 13.781 1.67969 13.0423V3.83111C1.67969 2.17062 3.03292 0.817383 4.69341 0.817383H11.002C12.6625 0.817383 14.0157 2.17062 14.0157 3.83111V13.0423C14.0157 13.781 13.7281 14.3759 13.2247 14.6701C12.9959 14.8073 12.7344 14.8727 12.4663 14.8727ZM7.84442 11.7413C8.15168 11.7413 8.4524 11.8067 8.69428 11.944L11.8845 13.7156C12.2179 13.9052 12.5252 13.9444 12.7213 13.8267C12.9174 13.7091 13.0286 13.428 13.0286 13.0423V3.83111C13.0286 2.71322 12.1133 1.79799 10.9954 1.79799H4.69341C3.57552 1.79799 2.66029 2.71322 2.66029 3.83111V13.0423C2.66029 13.428 2.77143 13.7156 2.96755 13.8267C3.16367 13.9379 3.46439 13.9052 3.80433 13.7156L6.99457 11.944C7.23645 11.8067 7.53717 11.7413 7.84442 11.7413Z" fill="#707070"/>
</svg>
