<svg width="32" height="33" viewBox="0 0 32 33" fill="none" xmlns="http://www.w3.org/2000/svg">
<circle cx="16" cy="16.6089" r="16" fill="#FF609D"/>
<path d="M21.5 16.6089C21.1022 16.6089 20.7206 16.4509 20.4393 16.1695C20.158 15.8882 20 15.5067 20 15.1089C20 14.7111 20.158 14.3295 20.4393 14.0482C20.7206 13.7669 21.1022 13.6089 21.5 13.6089C21.8978 13.6089 22.2794 13.7669 22.5607 14.0482C22.842 14.3295 23 14.7111 23 15.1089C23 15.5067 22.842 15.8882 22.5607 16.1695C22.2794 16.4509 21.8978 16.6089 21.5 16.6089ZM18.5 12.6089C18.1022 12.6089 17.7206 12.4509 17.4393 12.1695C17.158 11.8882 17 11.5067 17 11.1089C17 10.7111 17.158 10.3295 17.4393 10.0482C17.7206 9.76692 18.1022 9.60889 18.5 9.60889C18.8978 9.60889 19.2794 9.76692 19.5607 10.0482C19.842 10.3295 20 10.7111 20 11.1089C20 11.5067 19.842 11.8882 19.5607 12.1695C19.2794 12.4509 18.8978 12.6089 18.5 12.6089ZM13.5 12.6089C13.1022 12.6089 12.7206 12.4509 12.4393 12.1695C12.158 11.8882 12 11.5067 12 11.1089C12 10.7111 12.158 10.3295 12.4393 10.0482C12.7206 9.76692 13.1022 9.60889 13.5 9.60889C13.8978 9.60889 14.2794 9.76692 14.5607 10.0482C14.842 10.3295 15 10.7111 15 11.1089C15 11.5067 14.842 11.8882 14.5607 12.1695C14.2794 12.4509 13.8978 12.6089 13.5 12.6089ZM10.5 16.6089C10.1022 16.6089 9.72064 16.4509 9.43934 16.1695C9.15804 15.8882 9 15.5067 9 15.1089C9 14.7111 9.15804 14.3295 9.43934 14.0482C9.72064 13.7669 10.1022 13.6089 10.5 13.6089C10.8978 13.6089 11.2794 13.7669 11.5607 14.0482C11.842 14.3295 12 14.7111 12 15.1089C12 15.5067 11.842 15.8882 11.5607 16.1695C11.2794 16.4509 10.8978 16.6089 10.5 16.6089ZM16 7.60889C13.6131 7.60889 11.3239 8.5571 9.63604 10.2449C7.94821 11.9328 7 14.2219 7 16.6089C7 18.9958 7.94821 21.285 9.63604 22.9728C11.3239 24.6607 13.6131 25.6089 16 25.6089C16.3978 25.6089 16.7794 25.4509 17.0607 25.1695C17.342 24.8882 17.5 24.5067 17.5 24.1089C17.5 23.7189 17.35 23.3689 17.11 23.1089C16.88 22.8389 16.73 22.4889 16.73 22.1089C16.73 21.7111 16.888 21.3295 17.1693 21.0482C17.4506 20.7669 17.8322 20.6089 18.23 20.6089H20C21.3261 20.6089 22.5979 20.0821 23.5355 19.1444C24.4732 18.2067 25 16.935 25 15.6089C25 11.1889 20.97 7.60889 16 7.60889Z" fill="black"/>
</svg>
