<svg width="32" height="33" viewBox="0 0 32 33" fill="none" xmlns="http://www.w3.org/2000/svg">
<circle cx="16" cy="16.6089" r="16" fill="#F8B0ED"/>
<path fill-rule="evenodd" clip-rule="evenodd" d="M20.6191 13.8868C22.0806 13.6247 23.0279 12.5867 22.9901 11.8001C22.9294 10.5304 22.0127 9.89225 20.0367 9.88419H20.0113C19.9051 9.88437 19.8026 9.84532 19.7235 9.77454C19.6444 9.70375 19.5942 9.60623 19.5826 9.50069C19.577 9.45075 19.5817 9.4002 19.5963 9.35212C19.611 9.30405 19.6353 9.25946 19.6677 9.22108C19.7001 9.1827 19.74 9.15133 19.785 9.12889C19.83 9.10645 19.879 9.0934 19.9292 9.09056L20.0011 9.08622C20.589 9.04905 21.2389 9.02736 21.5896 9.11038C23.0517 9.45702 23.8633 10.3386 23.9315 11.7549C23.9857 12.8812 23.1478 13.9822 21.9684 14.8526L21.9341 14.8774C22.1623 15.2768 22.3084 15.7231 22.3724 16.2163C22.5948 17.6437 22.3879 18.5315 22.5465 19.1195C22.7054 19.7077 23.4281 20.0302 23.7134 20.6872C23.9987 21.3442 23.9457 21.632 23.8621 22.1493C23.8127 22.4562 23.7014 22.9046 23.5282 23.4944C23.509 23.5595 23.4693 23.6166 23.415 23.6573C23.3606 23.6979 23.2946 23.7199 23.2267 23.7199H22.1825C22.009 23.7199 21.8684 23.5793 21.8684 23.4058V23.2478C21.8684 23.2063 21.8766 23.1651 21.8926 23.1268C21.9086 23.0885 21.9321 23.0537 21.9616 23.0245C21.9911 22.9953 22.0262 22.9722 22.0647 22.9566C22.1032 22.941 22.1444 22.9332 22.1859 22.9337C22.327 22.9355 22.4471 22.8984 22.5465 22.8222C22.7977 22.6301 22.8185 22.5229 22.8185 22.1493C22.8185 21.9003 22.7278 21.6497 22.5465 21.3975C21.8185 20.9242 21.2098 20.5543 20.6727 20.2823C20.6173 20.8282 20.5086 21.3244 20.3465 21.7711C20.1761 22.2407 19.8801 22.8382 19.4584 23.5635C19.4308 23.6111 19.3912 23.6507 19.3435 23.6782C19.2958 23.7056 19.2417 23.72 19.1867 23.7199H18.3602C18.1898 23.7199 18.0504 23.5842 18.0464 23.4138L18.0427 23.2713C18.0405 23.1892 18.0706 23.1094 18.1265 23.0492C18.1825 22.9889 18.2598 22.953 18.3419 22.9492L18.7741 22.9287C18.9017 22.9225 19.0129 22.8398 19.0553 22.7193C19.1985 22.3129 19.2573 21.9135 19.2319 21.5211C19.203 21.0786 19.0558 20.4749 18.7902 19.7102C17.6874 19.7003 15.4502 20.1789 14.9351 20.2216C14.8136 20.2317 14.6889 20.2311 14.5608 20.2198C14.4572 20.5453 14.3925 20.882 14.3679 21.2228C14.3361 21.6352 14.3332 22.3603 14.3592 23.398C14.3602 23.4399 14.3529 23.4816 14.3375 23.5206C14.3222 23.5596 14.2992 23.5952 14.27 23.6252C14.2407 23.6552 14.2057 23.679 14.1671 23.6953C14.1285 23.7115 14.087 23.7199 14.0451 23.7199H13.1867C13.0132 23.7199 12.8726 23.5793 12.8726 23.4058V23.1902C12.8726 23.0167 13.0132 22.8761 13.1867 22.8761H13.319C13.368 22.8761 13.4163 22.8642 13.4598 22.8416C13.5033 22.8189 13.5407 22.7861 13.5688 22.7459C13.5969 22.7057 13.6148 22.6593 13.6212 22.6107C13.6275 22.562 13.622 22.5126 13.6052 22.4665C13.4427 22.0264 13.3162 21.5738 13.227 21.1131L12.1948 23.5294C12.1452 23.6449 12.0316 23.7199 11.9058 23.7199H10.7658C10.5923 23.7199 10.4514 23.5793 10.4514 23.4058V23.2453C10.4514 23.0929 10.5608 22.9625 10.7107 22.9362L11.2534 22.8398C11.3216 22.8274 11.3841 22.7934 11.4309 22.7419C11.6513 22.4993 11.7933 22.197 11.8572 21.8352C12.0145 20.9428 12.1143 20.8461 11.8572 19.9881C11.7735 19.7077 11.1595 19.4345 10.7668 18.1926C10.515 17.3977 10.2918 16.0474 10.097 14.1417C10.09 14.073 10.0605 14.0085 10.0132 13.9582C9.96578 13.9079 9.90315 13.8746 9.83495 13.8635L9.23152 13.766C9.13858 13.7508 9.05711 13.6947 9.00972 13.6132L8.53205 12.788L8.51904 12.7672C8.47226 12.7031 8.44651 12.6261 8.44531 12.5467C8.44531 12.486 8.46111 12.4233 8.49271 12.3587C8.50964 12.3242 8.53205 12.2938 8.55993 12.2676L9.18412 11.6812C9.22749 11.64 9.25878 11.5873 9.27365 11.5294L9.30896 11.3891C9.34056 11.2642 9.40995 11.1518 9.50721 11.0675C9.69494 10.9058 9.83351 10.7974 9.92293 10.7423C10.0344 10.6737 10.266 10.5915 10.6174 10.4957C10.439 10.246 10.3411 10.0275 10.3238 9.84021C10.2974 9.55924 10.2751 9.28107 10.3888 9.27022C10.465 9.2632 10.6578 9.47261 10.9672 9.89844C10.943 9.36026 10.9974 9.12256 11.1304 9.18535C11.2634 9.24813 11.5556 9.61087 12.0071 10.2736L12.4476 10.7754C12.6615 11.0192 12.8189 11.3072 12.9085 11.6189C13.1311 12.3934 13.3428 12.9508 13.5436 13.2914C13.9026 13.8992 14.3428 14.6476 15.7733 14.5367C17.2035 14.4261 17.6846 14.1364 18.6375 13.9865C19.1252 13.9123 19.6166 13.8646 20.1095 13.8437C20.2805 13.8356 20.4518 13.8501 20.6191 13.8868Z" fill="black"/>
</svg>
