<svg width="32" height="33" viewBox="0 0 32 33" fill="none" xmlns="http://www.w3.org/2000/svg">
<rect y="0.608887" width="32" height="32" rx="16" fill="#FFD88D"/>
<path d="M15.7786 9.05322C11.7233 9.05322 8.44531 12.3532 8.44531 16.3866C8.44531 18.3315 9.21793 20.1967 10.5932 21.572C11.2742 22.253 12.0826 22.7931 12.9723 23.1617C13.862 23.5302 14.8156 23.7199 15.7786 23.7199C17.7236 23.7199 19.5888 22.9473 20.9641 21.572C22.3394 20.1967 23.112 18.3315 23.112 16.3866C23.112 15.4235 22.9223 14.4699 22.5538 13.5802C22.1852 12.6905 21.6451 11.8821 20.9641 11.2011C20.2831 10.5201 19.4747 9.97997 18.585 9.61144C17.6953 9.2429 16.7417 9.05322 15.7786 9.05322ZM18.3453 13.4532C18.6371 13.4532 18.9168 13.5691 19.1231 13.7754C19.3294 13.9817 19.4453 14.2615 19.4453 14.5532C19.4453 14.845 19.3294 15.1248 19.1231 15.331C18.9168 15.5373 18.6371 15.6532 18.3453 15.6532C18.0536 15.6532 17.7738 15.5373 17.5675 15.331C17.3612 15.1248 17.2453 14.845 17.2453 14.5532C17.2453 14.2615 17.3612 13.9817 17.5675 13.7754C17.7738 13.5691 18.0536 13.4532 18.3453 13.4532ZM13.212 13.4532C13.5037 13.4532 13.7835 13.5691 13.9898 13.7754C14.1961 13.9817 14.312 14.2615 14.312 14.5532C14.312 14.845 14.1961 15.1248 13.9898 15.331C13.7835 15.5373 13.5037 15.6532 13.212 15.6532C12.9202 15.6532 12.6405 15.5373 12.4342 15.331C12.2279 15.1248 12.112 14.845 12.112 14.5532C12.112 14.2615 12.2279 13.9817 12.4342 13.7754C12.6405 13.5691 12.9202 13.4532 13.212 13.4532ZM15.7786 20.4199C14.07 20.4199 12.618 19.3492 12.0313 17.8532H19.526C18.932 19.3492 17.4873 20.4199 15.7786 20.4199Z" fill="black"/>
</svg>
