<svg width="32" height="33" viewBox="0 0 32 33" fill="none" xmlns="http://www.w3.org/2000/svg">
<circle cx="16" cy="16.6089" r="16" fill="#07FFCD"/>
<path fill-rule="evenodd" clip-rule="evenodd" d="M10.333 12.4709C9.46453 13.6651 8.99777 15.1043 9.00001 16.5809C8.99777 18.0575 9.46453 19.4967 10.333 20.6909C10.9892 20.2494 11.5189 19.6445 11.87 18.9359C12.2369 18.2053 12.4264 17.3984 12.423 16.5809C12.4249 15.7635 12.2355 14.957 11.87 14.2259C11.5189 13.5173 10.9892 12.9124 10.333 12.4709ZM11.159 11.5239C11.9338 12.076 12.5609 12.8102 12.985 13.6619C13.438 14.5569 13.673 15.5619 13.673 16.5809C13.6745 17.5946 13.4389 18.5945 12.985 19.5009C12.5608 20.3522 11.9337 21.0861 11.159 21.6379C12.3055 22.7374 13.7927 23.4129 15.375 23.5529V9.60889C13.745 9.75289 12.275 10.4559 11.159 11.5239ZM16.625 23.5539C18.2074 23.4136 19.6947 22.7377 20.841 21.6379C20.0662 21.0858 19.4391 20.3515 19.015 19.4999C18.5613 18.5938 18.3257 17.5942 18.327 16.5809C18.327 15.5609 18.562 14.5569 19.015 13.6609C19.439 12.8097 20.0657 12.0758 20.84 11.5239C19.694 10.4248 18.2076 9.74934 16.626 9.60889V23.5529L16.625 23.5539ZM23 16.5809C23.0022 18.0575 22.5355 19.4967 21.667 20.6909C21.0109 20.2494 20.4811 19.6445 20.13 18.9359C19.7631 18.2053 19.5736 17.3984 19.577 16.5809C19.577 15.7529 19.768 14.9409 20.13 14.2259C20.4811 13.5173 21.0109 12.9124 21.667 12.4709C22.5355 13.6651 23.0022 15.1043 23 16.5809Z" fill="black"/>
</svg>
