<svg width="32" height="33" viewBox="0 0 32 33" fill="none" xmlns="http://www.w3.org/2000/svg">
<circle cx="16" cy="16.6089" r="16" fill="#B1E5FC"/>
<path d="M16.8472 16.3867L23.5556 8.60889L12.8611 16.3867H14.8056L8 24.1644L18.6944 16.3867H16.8472ZM12.6667 17.3589H9.84722L12.2778 15.6089L19.5694 10.2617L15.7778 8.60889L8.97222 11.5256V14.4422C8.97222 16.3867 9.45833 18.2339 10.4306 19.8867L12.6667 17.3589ZM18.8889 15.4144H21.6111L19.2778 17.1644L12.375 22.22C13.3472 23.095 14.5139 23.7756 15.7778 24.1644C19.8611 22.7061 22.6806 18.8172 22.5833 14.4422V11.5256L22.3889 11.4283L18.8889 15.4144Z" fill="black"/>
</svg>
