<svg width="32" height="33" viewBox="0 0 32 33" fill="none" xmlns="http://www.w3.org/2000/svg">
<circle cx="16" cy="16.6089" r="16" fill="#FF9E9E"/>
<path d="M21.2188 12.855L15.0878 14.847C15.0158 14.8934 14.9332 14.9206 14.8478 14.926L12.7418 15.609H21.5008C21.6334 15.609 21.7605 15.6617 21.8543 15.7554C21.9481 15.8492 22.0008 15.9764 22.0008 16.109V21.109C22.0008 21.772 21.7374 22.4079 21.2685 22.8768C20.7997 23.3456 20.1638 23.609 19.5008 23.609H12.5008C11.8377 23.609 11.2018 23.3456 10.733 22.8768C10.2641 22.4079 10.0008 21.772 10.0008 21.109V16.109C10.0008 16.003 10.0338 15.904 10.0908 15.822L9.89575 15.22C9.69092 14.5894 9.74493 13.9033 10.0459 13.3126C10.3469 12.7219 10.8702 12.2749 11.5008 12.07L18.1578 9.90698C18.7883 9.70215 19.4744 9.75616 20.0651 10.0572C20.6559 10.3581 21.1028 10.8815 21.3078 11.512L21.5398 12.225C21.5807 12.3511 21.5699 12.4883 21.5097 12.6065C21.4495 12.7246 21.3449 12.814 21.2188 12.855ZM17.4748 13.02L18.7598 10.794C18.6602 10.8055 18.562 10.8269 18.4668 10.858L17.2218 11.262L15.9138 13.527L17.4748 13.02ZM19.7698 11.041L19.7498 11.078L18.8958 12.558L20.4338 12.058L20.3568 11.821C20.2535 11.5028 20.0469 11.2283 19.7698 11.041ZM15.7998 11.724L14.2398 12.231L12.9308 14.496L14.4908 13.989L15.7998 11.724ZM10.9238 15.149L11.5108 14.959L12.8178 12.693L11.8098 13.021C11.4314 13.1439 11.1174 13.4121 10.9369 13.7666C10.7563 14.121 10.7239 14.5327 10.8468 14.911L10.9238 15.149Z" fill="black"/>
</svg>
