<svg width="32" height="33" viewBox="0 0 32 33" fill="none" xmlns="http://www.w3.org/2000/svg">
<circle cx="16" cy="16.6089" r="16" fill="#CABDFF"/>
<path d="M11.8607 18.66V17.019H13.5017V18.66H11.8607ZM20.0658 12.5012C20.0645 12.1757 19.9342 11.8639 19.7036 11.6341C19.4729 11.4044 19.1606 11.2754 18.835 11.2754H10.5667C10.2403 11.2754 9.92724 11.4051 9.69642 11.6359C9.46561 11.8667 9.33594 12.1797 9.33594 12.5062V19.8908C9.33594 20.4348 9.55205 20.9566 9.93674 21.3413C10.3214 21.7259 10.8432 21.9421 11.3872 21.9421H20.5392C21.0833 21.9421 21.605 21.7259 21.9897 21.3413C22.3744 20.9566 22.5905 20.4348 22.5905 19.8908V14.9677C22.5905 14.6413 22.4608 14.3282 22.23 14.0974C21.9992 13.8666 21.6862 13.7369 21.3597 13.7369H20.8863V19.6692C20.8863 19.778 20.8431 19.8824 20.7661 19.9593C20.6892 20.0363 20.5848 20.0795 20.476 20.0795C20.3672 20.0795 20.2629 20.0363 20.1859 19.9593C20.109 19.8824 20.0658 19.778 20.0658 19.6692V12.5012ZM11.0401 14.1472C11.0401 14.0384 11.0834 13.934 11.1603 13.8571C11.2372 13.7802 11.3416 13.7369 11.4504 13.7369H18.0145C18.1233 13.7369 18.2277 13.7802 18.3046 13.8571C18.3815 13.934 18.4248 14.0384 18.4248 14.1472C18.4248 14.256 18.3815 14.3603 18.3046 14.4373C18.2277 14.5142 18.1233 14.5574 18.0145 14.5574H11.4504C11.3416 14.5574 11.2372 14.5142 11.1603 14.4373C11.0834 14.3603 11.0401 14.256 11.0401 14.1472ZM15.553 16.1985H18.0145C18.1233 16.1985 18.2277 16.2417 18.3046 16.3186C18.3815 16.3956 18.4248 16.4999 18.4248 16.6087C18.4248 16.7175 18.3815 16.8219 18.3046 16.8988C18.2277 16.9758 18.1233 17.019 18.0145 17.019H15.553C15.4442 17.019 15.3398 16.9758 15.2629 16.8988C15.1859 16.8219 15.1427 16.7175 15.1427 16.6087C15.1427 16.4999 15.1859 16.3956 15.2629 16.3186C15.3398 16.2417 15.4442 16.1985 15.553 16.1985ZM15.1427 19.0703C15.1427 18.9615 15.1859 18.8571 15.2629 18.7802C15.3398 18.7032 15.4442 18.66 15.553 18.66H18.0145C18.1233 18.66 18.2277 18.7032 18.3046 18.7802C18.3815 18.8571 18.4248 18.9615 18.4248 19.0703C18.4248 19.1791 18.3815 19.2834 18.3046 19.3604C18.2277 19.4373 18.1233 19.4805 18.0145 19.4805H15.553C15.4442 19.4805 15.3398 19.4373 15.2629 19.3604C15.1859 19.2834 15.1427 19.1791 15.1427 19.0703ZM11.4504 16.1985H13.9119C14.0207 16.1985 14.1251 16.2417 14.202 16.3186C14.279 16.3956 14.3222 16.4999 14.3222 16.6087V19.0703C14.3222 19.1791 14.279 19.2834 14.202 19.3604C14.1251 19.4373 14.0207 19.4805 13.9119 19.4805H11.4504C11.3416 19.4805 11.2372 19.4373 11.1603 19.3604C11.0834 19.2834 11.0401 19.1791 11.0401 19.0703V16.6087C11.0401 16.4999 11.0834 16.3956 11.1603 16.3186C11.2372 16.2417 11.3416 16.1985 11.4504 16.1985Z" fill="black"/>
</svg>
