<svg width="32" height="33" viewBox="0 0 32 33" fill="none" xmlns="http://www.w3.org/2000/svg">
<circle cx="16" cy="16.6089" r="16" fill="#CBEBA4"/>
<g clip-path="url(#clip0_4288_12965)">
<path d="M14.862 21.8092V18.3202L12.1607 20.5287C12.9083 21.1819 13.8365 21.6373 14.862 21.8092ZM11.0005 19.1108L14.862 15.9511V10.961C12.2609 11.3993 10.2786 13.6623 10.2786 16.3866C10.2786 17.3777 10.5422 18.3087 11.0005 19.1108ZM19.3966 20.5287L16.6953 18.3202V21.8092C17.718 21.6373 18.6461 21.1819 19.3966 20.5287ZM20.5596 19.1108C21.018 18.3087 21.2815 17.3777 21.2815 16.3866C21.2815 13.6623 19.2992 11.3993 16.6982 10.9639V15.954L20.5568 19.1108H20.5596ZM8.44531 16.3866C8.44531 14.4416 9.21793 12.5764 10.5932 11.2011C11.9685 9.82584 13.8337 9.05322 15.7786 9.05322C17.7236 9.05322 19.5888 9.82584 20.9641 11.2011C22.3394 12.5764 23.112 14.4416 23.112 16.3866C23.112 18.3315 22.3394 20.1967 20.9641 21.572C19.5888 22.9473 17.7236 23.7199 15.7786 23.7199C13.8337 23.7199 11.9685 22.9473 10.5932 21.572C9.21793 20.1967 8.44531 18.3315 8.44531 16.3866Z" fill="black"/>
</g>
<defs>
<clipPath id="clip0_4288_12965">
<rect width="14.6667" height="14.6667" fill="white" transform="translate(8.44531 9.05322)"/>
</clipPath>
</defs>
</svg>
