<svg width="32" height="33" viewBox="0 0 32 33" fill="none" xmlns="http://www.w3.org/2000/svg">
<circle cx="16" cy="16.6089" r="16" fill="#B5EBCD"/>
<path d="M20.5 18.6089C19.8078 18.6089 19.1311 18.4036 18.5555 18.019C17.9799 17.6344 17.5313 17.0878 17.2664 16.4483C17.0015 15.8087 16.9322 15.105 17.0673 14.4261C17.2023 13.7471 17.5356 13.1235 18.0251 12.634C18.5146 12.1445 19.1383 11.8112 19.8172 11.6761C20.4961 11.5411 21.1999 11.6104 21.8394 11.8753C22.4789 12.1402 23.0256 12.5888 23.4101 13.1644C23.7947 13.74 24 14.4167 24 15.1089L24.016 15.6089C24.016 16.5281 23.8349 17.4384 23.4832 18.2877C23.1314 19.137 22.6158 19.9086 21.9657 20.5586C21.3157 21.2086 20.5441 21.7243 19.6948 22.076C18.8455 22.4278 17.9353 22.6089 17.016 22.6089V20.6089C17.6729 20.6107 18.3236 20.4822 18.9306 20.2309C19.5375 19.9796 20.0886 19.6105 20.552 19.1449C20.7321 18.9651 20.8983 18.7719 21.049 18.5669C20.8674 18.5952 20.6838 18.6096 20.5 18.6099V18.6089ZM11.5 18.6089C10.8078 18.6089 10.1311 18.4036 9.55551 18.019C8.97993 17.6344 8.53133 17.0878 8.26642 16.4483C8.00152 15.8087 7.9322 15.105 8.06725 14.4261C8.2023 13.7471 8.53564 13.1235 9.02513 12.634C9.51461 12.1445 10.1383 11.8112 10.8172 11.6761C11.4961 11.5411 12.1999 11.6104 12.8394 11.8753C13.4789 12.1402 14.0256 12.5888 14.4101 13.1644C14.7947 13.74 15 14.4167 15 15.1089L15.016 15.6089C15.016 17.4654 14.2785 19.2459 12.9657 20.5586C11.653 21.8714 9.87252 22.6089 8.016 22.6089V20.6089C8.6729 20.6107 9.32363 20.4822 9.93057 20.2309C10.5375 19.9796 11.0886 19.6105 11.552 19.1449C11.7321 18.9651 11.8983 18.7719 12.049 18.5669C11.8674 18.5952 11.6838 18.6096 11.5 18.6099V18.6089Z" fill="black"/>
</svg>
